<svg width="32" height="32" viewBox="0 0 32 32" fill="none" xmlns="http://www.w3.org/2000/svg">
<path d="M7.22568 19.7154L4.84167 30.0366C4.76785 30.3491 4.79001 30.6766 4.90526 30.9764C5.02051 31.2761 5.2235 31.5341 5.4877 31.7167C5.75191 31.8994 6.06506 31.9981 6.38624 32C6.70743 32.0019 7.02173 31.9069 7.28808 31.7274L16.0001 25.9206L24.7122 31.7274C24.9847 31.9084 25.3061 32.0015 25.6332 31.9943C25.9603 31.9872 26.2773 31.88 26.5416 31.6873C26.806 31.4946 27.005 31.2256 27.1118 30.9165C27.2187 30.6074 27.2283 30.2729 27.1394 29.9582L24.213 19.7202L31.4706 13.1902C31.7031 12.981 31.8691 12.7082 31.9481 12.4056C32.0271 12.103 32.0157 11.7839 31.9153 11.4877C31.8148 11.1916 31.6298 10.9313 31.3829 10.7392C31.1361 10.5471 30.8384 10.4315 30.5266 10.4067L21.405 9.68049L17.4577 0.944566C17.3319 0.663269 17.1273 0.424402 16.8686 0.256794C16.61 0.0891861 16.3084 0 16.0001 0C15.6919 0 15.3903 0.0891861 15.1316 0.256794C14.873 0.424402 14.6684 0.663269 14.5425 0.944566L10.5953 9.68049L1.47365 10.4051C1.16718 10.4294 0.874188 10.5415 0.629734 10.7279C0.385279 10.9143 0.199712 11.1671 0.0952316 11.4562C-0.00924866 11.7453 -0.0282177 12.0583 0.0405942 12.3579C0.109406 12.6575 0.263085 12.9309 0.483245 13.1454L7.22568 19.7154ZM11.7905 12.7951C12.0761 12.7726 12.3504 12.6737 12.5846 12.5088C12.8188 12.3438 13.0043 12.1189 13.1217 11.8577L16.0001 5.48929L18.8786 11.8577C18.9959 12.1189 19.1815 12.3438 19.4157 12.5088C19.6499 12.6737 19.9242 12.7726 20.2098 12.7951L26.565 13.299L21.3314 18.0085C20.877 18.418 20.6962 19.0483 20.8626 19.637L22.8674 26.6516L16.8897 22.6668C16.6274 22.4907 16.3185 22.3967 16.0025 22.3967C15.6865 22.3967 15.3777 22.4907 15.1153 22.6668L8.86889 26.8308L10.5489 19.5586C10.6105 19.2911 10.6022 19.0123 10.5249 18.749C10.4476 18.4856 10.3037 18.2466 10.1073 18.0549L5.24647 13.3166L11.7905 12.7951Z" fill="black"/>
</svg>
