<svg width="36" height="35" viewBox="0 0 36 35" fill="none" xmlns="http://www.w3.org/2000/svg">
<path d="M31.125 5.83337H4.87496C4.48819 5.83337 4.11725 5.98702 3.84376 6.26051C3.57027 6.534 3.41663 6.90493 3.41663 7.29171V27.7084C3.41663 28.0951 3.57027 28.4661 3.84376 28.7396C4.11725 29.0131 4.48819 29.1667 4.87496 29.1667H31.125C31.5117 29.1667 31.8827 29.0131 32.1562 28.7396C32.4297 28.4661 32.5833 28.0951 32.5833 27.7084V7.29171C32.5833 6.90493 32.4297 6.534 32.1562 6.26051C31.8827 5.98702 31.5117 5.83337 31.125 5.83337ZM29.6666 21.875C28.5063 21.875 27.3935 22.336 26.573 23.1564C25.7526 23.9769 25.2916 25.0897 25.2916 26.25H10.7083C10.7083 25.0897 10.2474 23.9769 9.42689 23.1564C8.60641 22.336 7.49362 21.875 6.33329 21.875V13.125C7.49362 13.125 8.60641 12.6641 9.42689 11.8436C10.2474 11.0232 10.7083 9.91036 10.7083 8.75004H25.2916C25.2916 9.91036 25.7526 11.0232 26.573 11.8436C27.3935 12.6641 28.5063 13.125 29.6666 13.125V21.875Z" fill="black"/>
<path d="M18 11.6666C14.7829 11.6666 12.1666 14.2829 12.1666 17.5C12.1666 20.717 14.7829 23.3333 18 23.3333C21.217 23.3333 23.8333 20.717 23.8333 17.5C23.8333 14.2829 21.217 11.6666 18 11.6666ZM18 20.4166C16.3914 20.4166 15.0833 19.1085 15.0833 17.5C15.0833 15.8914 16.3914 14.5833 18 14.5833C19.6085 14.5833 20.9166 15.8914 20.9166 17.5C20.9166 19.1085 19.6085 20.4166 18 20.4166Z" fill="black"/>
</svg>
