<svg width="32" height="32" viewBox="0 0 32 32" fill="none" xmlns="http://www.w3.org/2000/svg">
<path d="M28.8 10.2255H19.8208L21.6176 4.83829C21.9408 3.86549 21.7776 2.78709 21.1776 1.95509C20.5776 1.12309 19.6048 0.625488 18.5792 0.625488H16C15.5248 0.625488 15.0752 0.836688 14.7696 1.20149L7.2496 10.2255H3.2C1.4352 10.2255 0 11.6607 0 13.4255V27.8255C0 29.5903 1.4352 31.0255 3.2 31.0255H24.4912C25.1422 31.0233 25.7773 30.8236 26.3123 30.4528C26.8474 30.082 27.2574 29.5575 27.488 28.9487L31.8992 17.1871C31.9662 17.0074 32.0003 16.8172 32 16.6255V13.4255C32 11.6607 30.5648 10.2255 28.8 10.2255ZM3.2 13.4255H6.4V27.8255H3.2V13.4255ZM28.8 16.3359L24.4912 27.8255H9.6V12.4047L16.7488 3.82549H18.5824L16.0832 11.3183C16.0021 11.5588 15.9794 11.8152 16.0172 12.0662C16.0549 12.3172 16.152 12.5556 16.3003 12.7616C16.4485 12.9676 16.6438 13.1352 16.8698 13.2507C17.0959 13.3662 17.3462 13.4261 17.6 13.4255H28.8V16.3359Z" fill="black"/>
</svg>
