<svg width="32" height="32" viewBox="0 0 32 32" fill="none" xmlns="http://www.w3.org/2000/svg">
<path d="M4.8 25.5999V31.6255L7.224 30.1711L14.8432 25.5999H22.4C24.1648 25.5999 25.6 24.1647 25.6 22.3999V9.5999C25.6 7.8351 24.1648 6.3999 22.4 6.3999H3.2C1.4352 6.3999 0 7.8351 0 9.5999V22.3999C0 24.1647 1.4352 25.5999 3.2 25.5999H4.8ZM3.2 9.5999H22.4V22.3999H13.9568L8 25.9743V22.3999H3.2V9.5999Z" fill="black"/>
<path d="M28.8 0H9.60002C7.83522 0 6.40002 1.4352 6.40002 3.2H25.6C27.3648 3.2 28.8 4.6352 28.8 6.4V19.2C30.5648 19.2 32 17.7648 32 16V3.2C32 1.4352 30.5648 0 28.8 0Z" fill="black"/>
</svg>
