<svg width="32" height="33" viewBox="0 0 32 33" fill="none" xmlns="http://www.w3.org/2000/svg">
<path d="M16 0.625488C7.1776 0.625488 0 7.80309 0 16.6255C0 25.4479 7.1776 32.6255 16 32.6255C24.8224 32.6255 32 25.4479 32 16.6255C32 7.80309 24.8224 0.625488 16 0.625488ZM16 29.4255C8.9424 29.4255 3.2 23.6831 3.2 16.6255C3.2 9.56789 8.9424 3.82549 16 3.82549C23.0576 3.82549 28.8 9.56789 28.8 16.6255C28.8 23.6831 23.0576 29.4255 16 29.4255Z" fill="black"/>
<path d="M17.6 8.62549H14.4V18.2255H24V15.0255H17.6V8.62549Z" fill="black"/>
</svg>
