<svg width="30" height="27" viewBox="0 0 30 27" fill="none" xmlns="http://www.w3.org/2000/svg">
<path d="M11.8421 13.9453C15.3253 13.9453 18.1579 11.1127 18.1579 7.62951C18.1579 4.14635 15.3253 1.31372 11.8421 1.31372C8.35895 1.31372 5.52632 4.14635 5.52632 7.62951C5.52632 11.1127 8.35895 13.9453 11.8421 13.9453ZM14.2105 15.5242H9.47369C4.24895 15.5242 0 19.7732 0 24.9979V26.5769H23.6842V24.9979C23.6842 19.7732 19.4353 15.5242 14.2105 15.5242Z" fill="black"/>
<path d="M23.0589 12.4421C24.0205 10.8033 24.4358 8.90101 24.2447 7.01053C23.962 4.19368 22.3894 1.70368 19.8189 0L18.0741 2.63053C19.841 3.80211 20.9163 5.47105 21.1026 7.32632C21.1885 8.18858 21.0811 9.05914 20.7883 9.87471C20.4955 10.6903 20.0247 11.4303 19.4099 12.0411L17.5278 13.9232L20.0826 14.6732C26.7647 16.6311 26.842 23.3511 26.842 23.4189H29.9999C29.9999 20.5942 28.4905 15.0742 23.0589 12.4421Z" fill="black"/>
</svg>
