<svg xmlns="http://www.w3.org/2000/svg" viewBox="0 0 80 80"><defs><style>.f2edb2b3-959a-4041-a1e0-b889384da206{fill:#77c6ca;}</style></defs><title>_reserved copia 31</title><g id="a6782bcc-1c64-40a2-bc5e-d674b3ee31a5" data-name="Capa 2"><g id="ab4d40d9-08bc-4409-b03b-8e326a2ae104" data-name="Grupo 1082-2"><path id="bf90b60c-6fe5-4b18-b5c6-413424d5473e" data-name="Trazado 2409-2" class="f2edb2b3-959a-4041-a1e0-b889384da206" d="M70.9,30.26l-6.47-6.47.21-.9,7.07-2.09a1.27,1.27,0,0,0,.86-1.58,1.25,1.25,0,0,0-.86-.85l-7.07-2.09L63.09,9.8a1.26,1.26,0,0,0-1.52-.94,1.28,1.28,0,0,0-.94.94l-1.54,6.48-1.68.49L47.3,6.67a9.88,9.88,0,0,0-14,0h0L9.72,30.26a9.9,9.9,0,0,0,0,14l1.19,1.18L9.52,50.36C8.79,54.2,4.33,60.8,4.28,60.87a1.26,1.26,0,0,0,.16,1.6l14,14a1.24,1.24,0,0,0,1.58.17l7.54-4.88a58.63,58.63,0,0,0,5.56-4.11l.16.16a9.9,9.9,0,0,0,14,0h0L70.9,44.25a9.92,9.92,0,0,0,0-14ZM60.51,18.5a1.25,1.25,0,0,0,.87-.92l.48-2,.47,2a1.28,1.28,0,0,0,.88.92l3.68,1.08-3.68,1.09a1.28,1.28,0,0,0-.88.92l-.47,2-.48-2a1.25,1.25,0,0,0-.87-.92l-3.68-1.09ZM26.21,69.67,19.53,74,7,61.41c1.3-2,4.38-7.07,5-10.48l5.4-19.15a2.17,2.17,0,0,1,4.3.58L19.16,43.27a1.26,1.26,0,0,0,2.12,1.18L39.45,26.28a1.92,1.92,0,0,1,2.64,0,1.86,1.86,0,0,1,0,2.64h0L28.72,42.29a1.27,1.27,0,0,0,1.8,1.79L47.57,27a1.87,1.87,0,0,1,2.65,2.64h0l-4.46,4.46h0l-12.6,12.6A1.27,1.27,0,0,0,35,48.51l12.6-12.6a1.91,1.91,0,0,1,2.7,2.7l-3.63,3.63L37,51.89a1.27,1.27,0,0,0,1.79,1.79l.68-.68h0l9-9A1.88,1.88,0,0,1,51,44a1.83,1.83,0,0,1,0,2.58L35.27,62.34a55.41,55.41,0,0,1-9.06,7.32Zm42.9-27.21L45.52,66.05a7.36,7.36,0,0,1-10.41,0h0l0,0c.68-.61,1.34-1.24,2-1.88L52.79,48.42a4.36,4.36,0,0,0,0-6.16h0a4.12,4.12,0,0,0-1.61-1l.87-.87a4.41,4.41,0,0,0-1.66-7.31L52,31.46a4.4,4.4,0,0,0-6.22-6.22l-.88.89a4.41,4.41,0,0,0-1-1.63,4.51,4.51,0,0,0-6.22,0l-15,15,1.55-6.68a.77.77,0,0,0,0-.15,4.7,4.7,0,0,0-9.27-1.51L11.71,42.64l-.18-.17a7.38,7.38,0,0,1,0-10.42L35.12,8.46a7.37,7.37,0,0,1,10.41,0h0l9.13,9.13L52,18.37a1.27,1.27,0,0,0-.86,1.57,1.26,1.26,0,0,0,.86.86l7.08,2.09,1.54,6.48a1.26,1.26,0,0,0,2.46,0l.64-2.69,5.37,5.37a7.37,7.37,0,0,1,0,10.41Z"/><path id="a02ccb62-c10c-4463-91ba-03388ca481fc" data-name="Trazado 2410-2" class="f2edb2b3-959a-4041-a1e0-b889384da206" d="M11.21,8.15a1.26,1.26,0,0,0,1.26-1.27V4.35a1.27,1.27,0,0,0-2.53,0V6.88a1.27,1.27,0,0,0,1.27,1.27Z"/><path id="ae6f6e48-2783-4fd5-88e9-81d8468b821a" data-name="Trazado 2411-2" class="f2edb2b3-959a-4041-a1e0-b889384da206" d="M11.21,10.68a1.27,1.27,0,0,0-1.27,1.26h0v2.54a1.27,1.27,0,0,0,2.53.07V11.94A1.26,1.26,0,0,0,11.21,10.68Z"/><path id="af874c75-043e-4c1a-aaba-b546962f7c9d" data-name="Trazado 2412-2" class="f2edb2b3-959a-4041-a1e0-b889384da206" d="M6.15,10.68H8.68a1.27,1.27,0,0,0,.07-2.53H6.15a1.27,1.27,0,1,0-.08,2.53Z"/><path id="b0c8c437-84a3-49fe-a150-ed4565c68099" data-name="Trazado 2413-2" class="f2edb2b3-959a-4041-a1e0-b889384da206" d="M13.74,10.68h2.53a1.27,1.27,0,0,0,.08-2.53H13.74a1.27,1.27,0,1,0-.08,2.53Z"/><path id="b38abeb6-a1e6-418c-8dab-d4aa4a8e780d" data-name="Trazado 2414-2" class="f2edb2b3-959a-4041-a1e0-b889384da206" d="M65,65.09a4.43,4.43,0,1,0,4.43,4.43h0A4.45,4.45,0,0,0,65,65.09Zm0,6.33a1.9,1.9,0,1,1,1.9-1.9h0A1.9,1.9,0,0,1,65,71.42Z"/><path id="bcdf7ab0-9fdc-43c3-91a2-baf779b9773c" data-name="Trazado 2415-2" class="f2edb2b3-959a-4041-a1e0-b889384da206" d="M74.58,56.9a1.36,1.36,0,1,0,1.36,1.36h0a1.36,1.36,0,0,0-1.36-1.36Z"/></g></g></svg>
