<svg xmlns="http://www.w3.org/2000/svg" viewBox="0 0 80 80"><defs><style>.fdf2edd5-e8f1-432f-b795-c252a4317fd4{fill:#77c6ca;}</style></defs><title>_reserved copia 32</title><g id="bced011c-3e03-469c-89bb-5cb0b65b76e6" data-name="Capa 2"><g id="bdd57418-b83e-478f-a4f5-c477349e01d6" data-name="Grupo 1084"><path id="fae67cc0-2cef-438c-9a29-2f14f27caa41" data-name="Trazado 2416-2" class="fdf2edd5-e8f1-432f-b795-c252a4317fd4" d="M21.26,38.75h-2.5v-2.5A1.25,1.25,0,0,0,17.51,35h-5a1.25,1.25,0,0,0-1.24,1.25v2.5H8.77A1.25,1.25,0,0,0,7.52,40v5a1.25,1.25,0,0,0,1.25,1.25h2.5v2.5A1.25,1.25,0,0,0,12.51,50h5a1.25,1.25,0,0,0,1.25-1.25h0v-2.5h2.5A1.25,1.25,0,0,0,22.51,45V40A1.25,1.25,0,0,0,21.26,38.75Zm-1.25,5h-2.5A1.25,1.25,0,0,0,16.27,45v2.5h-2.5V45a1.25,1.25,0,0,0-1.25-1.25H10v-2.5h2.5A1.25,1.25,0,0,0,13.77,40V37.5h2.5V40a1.25,1.25,0,0,0,1.24,1.25H20Z"/><path id="e45d8934-f406-4d06-8989-aae499d5cfa3" data-name="Trazado 2417-2" class="fdf2edd5-e8f1-432f-b795-c252a4317fd4" d="M23.76,22.51H22.51V18.77A3.77,3.77,0,0,0,20,15.24V3.78a1.25,1.25,0,0,0-1.25-1.25H11.27A1.25,1.25,0,0,0,10,3.78V15.24a3.77,3.77,0,0,0-2.5,3.53v3.74H6.27a3.77,3.77,0,0,0-3.75,3.75V73.73a3.76,3.76,0,0,0,3.75,3.74H23.76a3.76,3.76,0,0,0,3.75-3.74V26.26a3.76,3.76,0,0,0-3.75-3.75ZM12.52,5h5V15h-5ZM10,18.77a1.25,1.25,0,0,1,1.25-1.25h7.49A1.25,1.25,0,0,1,20,18.77v3.74H10Zm15,55A1.26,1.26,0,0,1,23.76,75H6.27A1.26,1.26,0,0,1,5,73.73V26.26A1.25,1.25,0,0,1,6.27,25H23.76A1.25,1.25,0,0,1,25,26.26h0Z"/><path id="a78addbb-d7aa-47bd-8147-287d2e682bf3" data-name="Trazado 2418-2" class="fdf2edd5-e8f1-432f-b795-c252a4317fd4" d="M76.22,41.25H74.75c0-.13-.1-.24-.15-.36l1.05-1a1.26,1.26,0,0,0-1.78-1.77h0l-1,1.05L72.47,39V37.5a1.25,1.25,0,0,0-2.5,0V39l-.36.15-1-1a1.26,1.26,0,0,0-1.77,1.78h0l1,1-.15.37H66.23a1.25,1.25,0,0,0,0,2.5H67.7c0,.12.1.23.15.36l-1,1a1.27,1.27,0,0,0,0,1.77,1.29,1.29,0,0,0,.89.36,1.25,1.25,0,0,0,.88-.36l1-1.05L70,46V47.5a1.25,1.25,0,0,0,2.5,0V46l.37-.15,1,1.05a1.26,1.26,0,0,0,.89.37,1.35,1.35,0,0,0,.89-.37,1.27,1.27,0,0,0,0-1.77l-1.05-1c.05-.12.1-.23.15-.36h1.47a1.25,1.25,0,0,0,0-2.5Zm-5,2.5a1.25,1.25,0,1,1,1.25-1.25,1.25,1.25,0,0,1-1.25,1.25Z"/><path id="fc7d21e2-8639-4512-8d8d-54970381b570" data-name="Trazado 2419-2" class="fdf2edd5-e8f1-432f-b795-c252a4317fd4" d="M61.24,45H59.81a5,5,0,0,0-.54-1.28l1-1A1.25,1.25,0,0,0,58.52,41l-1,1a5.71,5.71,0,0,0-1.27-.54V40a1.25,1.25,0,0,0-2.5,0v1.42a5.52,5.52,0,0,0-1.27.54l-1-1a1.25,1.25,0,0,0-1.76,1.76l1,1A5.32,5.32,0,0,0,50.17,45H48.74a1.25,1.25,0,0,0,0,2.5h1.43a5.42,5.42,0,0,0,.53,1.27l-1,1a1.26,1.26,0,0,0,0,1.76,1.22,1.22,0,0,0,1.73,0l0,0,1-1a4.77,4.77,0,0,0,1.27.54v1.42a1.25,1.25,0,0,0,2.5,0V51.07a4.91,4.91,0,0,0,1.27-.54l1,1a1.22,1.22,0,0,0,1.73,0l0,0a1.26,1.26,0,0,0,0-1.76l-1-1a5.06,5.06,0,0,0,.54-1.27h1.43a1.25,1.25,0,1,0,0-2.5ZM55,48.74a2.5,2.5,0,1,1,2.5-2.5A2.5,2.5,0,0,1,55,48.74Z"/><path id="a173ae0e-2e7f-41a2-918b-f508908fa647" data-name="Trazado 2420-2" class="fdf2edd5-e8f1-432f-b795-c252a4317fd4" d="M76.22,21.26A1.25,1.25,0,0,0,75,22.51H73.55A5.06,5.06,0,0,0,73,21.24l1-1a1.28,1.28,0,0,0,1.78,0,1.26,1.26,0,0,0,0-1.76L74,16.69a1.25,1.25,0,0,0-1.76,1.78h0l-1,1A5.06,5.06,0,0,0,70,18.94V17.52A1.25,1.25,0,0,0,70,15h-2.5a1.25,1.25,0,0,0,0,2.5v1.42a5,5,0,0,0-1.28.54l-1-1a1.25,1.25,0,0,0-1.76-1.78l-1.77,1.78a1.24,1.24,0,0,0,0,1.76,1.27,1.27,0,0,0,1.77,0l1,1a5.06,5.06,0,0,0-.54,1.27H62.48a1.25,1.25,0,1,0-2.5,0h0V25a1.25,1.25,0,0,0,2.5,0h1.43a5,5,0,0,0,.54,1.28l-1,1A1.25,1.25,0,1,0,61.63,29l0,0,1.77,1.77a1.25,1.25,0,1,0,1.79-1.74l0,0,1-1a5.09,5.09,0,0,0,1.27.53V30a1.25,1.25,0,0,0,0,2.5H70A1.25,1.25,0,1,0,70,30V28.58a5.25,5.25,0,0,0,1.27-.53l1,1A1.25,1.25,0,0,0,74,30.83l1.77-1.77a1.25,1.25,0,1,0-1.72-1.81l0,.05-1-1A5,5,0,0,0,73.55,25H75a1.25,1.25,0,1,0,2.5,0v-2.5a1.26,1.26,0,0,0-1.25-1.25Zm-7.49,5a2.5,2.5,0,1,1,2.5-2.5A2.5,2.5,0,0,1,68.73,26.26Z"/><path id="f0d12e15-0fbb-4011-a4b5-7380fed5f14b" data-name="Trazado 2421-2" class="fdf2edd5-e8f1-432f-b795-c252a4317fd4" d="M23.76,7.52H25A1.25,1.25,0,0,0,25,5H23.76a1.25,1.25,0,0,0,0,2.5Z"/><path id="a887be74-f390-4b09-b72d-244020039f50" data-name="Trazado 2422-2" class="fdf2edd5-e8f1-432f-b795-c252a4317fd4" d="M30,7.52h1.25a1.25,1.25,0,0,0,0-2.5H30a1.25,1.25,0,0,0,0,2.5Z"/><path id="a4db2618-5ebd-47f6-ba74-6ee4c9187f4d" data-name="Trazado 2423-2" class="fdf2edd5-e8f1-432f-b795-c252a4317fd4" d="M36.25,7.52H37.5a1.25,1.25,0,0,0,0-2.5H36.25a1.25,1.25,0,0,0,0,2.5Z"/><path id="a596beaf-c785-4662-a1a7-35c441c4d36a" data-name="Trazado 2424-2" class="fdf2edd5-e8f1-432f-b795-c252a4317fd4" d="M42.5,7.52h1.25a1.25,1.25,0,0,0,0-2.5H42.5a1.25,1.25,0,0,0,0,2.5Z"/><path id="feb5cc6d-6b7a-49f1-a1c7-ceaf28673ae1" data-name="Trazado 2425-2" class="fdf2edd5-e8f1-432f-b795-c252a4317fd4" d="M48.74,7.52H50A1.25,1.25,0,0,0,50,5H48.74a1.25,1.25,0,0,0,0,2.5Z"/><path id="fa7076fa-79e0-493c-adf3-73f1bb1faf78" data-name="Trazado 2426-2" class="fdf2edd5-e8f1-432f-b795-c252a4317fd4" d="M55,7.52h1.25a1.25,1.25,0,0,0,0-2.5H55a1.25,1.25,0,0,0,0,2.5Z"/><path id="f82f4a0a-4743-48cf-9727-bd048bd75033" data-name="Trazado 2427-2" class="fdf2edd5-e8f1-432f-b795-c252a4317fd4" d="M24.58,13.77a1.25,1.25,0,0,0-1.76,1.77l.88.88a1.25,1.25,0,1,0,1.77-1.77h0Z"/><path id="e44f5454-9dbb-4e9a-981c-a431b14f8f30" data-name="Trazado 2428-2" class="fdf2edd5-e8f1-432f-b795-c252a4317fd4" d="M29,18.19a1.25,1.25,0,1,0-1.8,1.73l0,0,.89.89a1.25,1.25,0,0,0,1.76-1.77h0Z"/><path id="b542104f-bdcb-4b12-a66d-d53cbcdd5233" data-name="Trazado 2429-2" class="fdf2edd5-e8f1-432f-b795-c252a4317fd4" d="M33.42,22.6a1.25,1.25,0,0,0-1.81,1.73l0,0,.88.88a1.25,1.25,0,1,0,1.8-1.73l0,0Z"/><path id="a598152c-5032-453b-9c7d-8545c153b6e0" data-name="Trazado 2430-2" class="fdf2edd5-e8f1-432f-b795-c252a4317fd4" d="M37.83,27a1.25,1.25,0,1,0-1.77,1.76l.89.89a1.25,1.25,0,0,0,1.77-1.77Z"/><path id="fddabf9c-0860-43b3-9419-81fd537a7332" data-name="Trazado 2431-2" class="fdf2edd5-e8f1-432f-b795-c252a4317fd4" d="M42.25,31.43a1.25,1.25,0,0,0-1.76,1.77l.88.88a1.24,1.24,0,0,0,1.76-1.76Z"/><path id="b225db7b-fb36-472b-9995-bdff2f773c73" data-name="Trazado 2432-2" class="fdf2edd5-e8f1-432f-b795-c252a4317fd4" d="M47.55,36.73l-.89-.88a1.25,1.25,0,1,0-1.8,1.73l0,0,.88.88a1.25,1.25,0,0,0,1.77-1.76Z"/><path id="b5b9497e-18f2-4b5b-a5b8-b44a700edd1f" data-name="Trazado 2433-2" class="fdf2edd5-e8f1-432f-b795-c252a4317fd4" d="M23,11.4l1.21.32a1.12,1.12,0,0,0,.32,0,1.25,1.25,0,0,0,.32-2.45L23.64,9a1.24,1.24,0,0,0-1.47,1A1.25,1.25,0,0,0,23,11.4Z"/><path id="b4259244-e6aa-413f-8020-224bddda533e" data-name="Trazado 2434-2" class="fdf2edd5-e8f1-432f-b795-c252a4317fd4" d="M31.76,12.46a1.26,1.26,0,0,0-.89-1.53h0l-1.2-.33A1.25,1.25,0,0,0,29,13L29,13l1.21.32a1.25,1.25,0,0,0,1.53-.88Z"/><path id="fdf1d42c-c554-415c-87b5-c055479a11ba" data-name="Trazado 2435-2" class="fdf2edd5-e8f1-432f-b795-c252a4317fd4" d="M36.59,15a1.25,1.25,0,0,0,.32-2.46l-1.21-.32A1.25,1.25,0,1,0,35,14.61l.06,0,1.21.33a1.65,1.65,0,0,0,.32,0Z"/><path id="a62c12f0-a08d-4fe5-a868-cba4743dde67" data-name="Trazado 2436-2" class="fdf2edd5-e8f1-432f-b795-c252a4317fd4" d="M42.94,14.16l-1.21-.32a1.25,1.25,0,1,0-.64,2.41l1.2.32a1.25,1.25,0,1,0,.65-2.41Z"/><path id="fa73d00f-35e7-4afd-9bb9-e3fdf28649e1" data-name="Trazado 2437-2" class="fdf2edd5-e8f1-432f-b795-c252a4317fd4" d="M47.12,17.86l1.21.33a1.12,1.12,0,0,0,.32,0A1.25,1.25,0,0,0,49,15.77l-1.2-.32a1.26,1.26,0,0,0-1.53.89,1.25,1.25,0,0,0,.88,1.52Z"/><g id="e97ff244-28ca-41c2-8114-2fe5f8f11546" data-name="Grupo 1083-2"><path id="bd600a91-4f92-4c27-bde0-df47cca1f15e" data-name="Trazado 2438-2" class="fdf2edd5-e8f1-432f-b795-c252a4317fd4" d="M53.15,19.48l1.21.33A1.25,1.25,0,0,0,55,17.39l-1.2-.32a1.25,1.25,0,1,0-.65,2.41Z"/><path id="b150a354-c7cf-4610-9533-3a4662f55d4e" data-name="Trazado 2439-2" class="fdf2edd5-e8f1-432f-b795-c252a4317fd4" d="M63.73,10A3.75,3.75,0,1,0,60,6.27h0A3.74,3.74,0,0,0,63.73,10Zm0-5a1.25,1.25,0,1,1-1.25,1.25A1.25,1.25,0,0,1,63.73,5Z"/></g><path id="a85f884b-4aac-428c-81b9-de6dd07a17dd" data-name="Trazado 2440-2" class="fdf2edd5-e8f1-432f-b795-c252a4317fd4" d="M51.24,31.26A3.75,3.75,0,1,0,55,27.51a3.74,3.74,0,0,0-3.75,3.75Zm5,0A1.25,1.25,0,1,1,55,30,1.25,1.25,0,0,1,56.24,31.26Z"/><path id="a7d9ca3c-4654-4536-9bad-eee277c43050" data-name="Trazado 2441-2" class="fdf2edd5-e8f1-432f-b795-c252a4317fd4" d="M66.23,53.74A3.75,3.75,0,1,0,70,57.49h0A3.75,3.75,0,0,0,66.23,53.74Zm0,5a1.25,1.25,0,1,1,1.25-1.25A1.25,1.25,0,0,1,66.23,58.74Z"/><rect id="a841881f-4d9c-4104-95d7-dc37f9892022" data-name="Rectángulo 529-2" class="fdf2edd5-e8f1-432f-b795-c252a4317fd4" x="13.77" y="8.77" width="2.5" height="2.5"/><path id="fef4119e-ffb1-4294-a5f5-6866c6b59064" data-name="Trazado 2442-2" class="fdf2edd5-e8f1-432f-b795-c252a4317fd4" d="M21.26,52.49H8.77a1.25,1.25,0,0,0,0,2.5H21.26a1.25,1.25,0,0,0,0-2.5Z"/><path id="b0271a46-5703-48a1-b9a1-e8633a38bece" data-name="Trazado 2443-2" class="fdf2edd5-e8f1-432f-b795-c252a4317fd4" d="M21.26,57.49H8.77a1.25,1.25,0,0,0,0,2.5H21.26a1.25,1.25,0,0,0,0-2.5Z"/><path id="a0841979-a6c0-438d-9632-e79a13f8c6c2" data-name="Trazado 2444-2" class="fdf2edd5-e8f1-432f-b795-c252a4317fd4" d="M17.52,62.48h-5a1.25,1.25,0,1,0,0,2.5h5a1.25,1.25,0,1,0,0-2.5Z"/></g></g></svg>
