<svg xmlns="http://www.w3.org/2000/svg" viewBox="0 0 80 80"><defs><style>.e524e756-fa1f-489e-a845-dfa79db4a6f2{fill:#77c6ca;}</style></defs><title>_reserved copia 34</title><g id="f28ea3f1-ee5f-4af4-9fa5-a887f2abc457" data-name="Capa 2"><g id="ad8c5413-05f9-4062-81f4-e5687f0ba9ac" data-name="Grupo 1086"><path id="b8830df9-5302-4a62-90c3-18cdf0ba536d" data-name="Trazado 2445" class="e524e756-fa1f-489e-a845-dfa79db4a6f2" d="M11.54,14.51a1.5,1.5,0,1,0-1-.44A1.47,1.47,0,0,0,11.54,14.51Z"/><path id="afad568e-a793-408b-b679-6a8d063685a9" data-name="Trazado 2446" class="e524e756-fa1f-489e-a845-dfa79db4a6f2" d="M20.25,14.51a1.5,1.5,0,1,0-1-.44A1.45,1.45,0,0,0,20.25,14.51Z"/><path id="f4abb17a-3de9-497c-8542-e43825c19aea" data-name="Trazado 2447" class="e524e756-fa1f-489e-a845-dfa79db4a6f2" d="M29,14.51A1.49,1.49,0,1,0,27.48,13a1.53,1.53,0,0,0,.43,1.05A1.49,1.49,0,0,0,29,14.51Z"/><path id="afb1e592-638a-41c5-a351-72e085e18fbb" data-name="Trazado 2448" class="e524e756-fa1f-489e-a845-dfa79db4a6f2" d="M37.66,14.51A1.49,1.49,0,1,0,36.19,13a1.44,1.44,0,0,0,.43,1.05A1.47,1.47,0,0,0,37.66,14.51Z"/><g id="bd09ee86-4be6-4c6f-b92e-96fbd3914043" data-name="Grupo 1085"><path id="a70d01d9-964d-4af1-a97a-c328c1844642" data-name="Trazado 2449" class="e524e756-fa1f-489e-a845-dfa79db4a6f2" d="M46.37,14.51h6.08a1.49,1.49,0,0,0,0-3H46.37a1.49,1.49,0,0,0,0,3Z"/><path id="aa353334-ff67-4a4d-a0ea-d61fc4ef9f8a" data-name="Trazado 2450" class="e524e756-fa1f-489e-a845-dfa79db4a6f2" d="M77.6,43.2a1.49,1.49,0,0,0-1.14-.53h-.14c-2.81-5.93-8-9.56-13.71-9.56-.22,0-.45,0-.68,0V12.43A7.42,7.42,0,0,0,54.52,5H9.47a7.42,7.42,0,0,0-7.41,7.41V67.57A7.42,7.42,0,0,0,9.47,75H71a1.49,1.49,0,0,0,1.45-1.21l5.49-29.35a1.5,1.5,0,0,0-.32-1.22ZM73,42.67H65.19a14.44,14.44,0,0,0-6.49-5.83,10.28,10.28,0,0,1,3.91-.77c4.15,0,8,2.48,10.36,6.6Zm-33,0a1.48,1.48,0,0,0-1.48,1.48,2.45,2.45,0,0,0,0,.27l.79,4.21A6.43,6.43,0,0,1,33,47a9.46,9.46,0,0,0-10.32-2,9.77,9.77,0,0,1,17.47-2.25ZM26.36,47.15A6.44,6.44,0,0,1,31,49.05a9.32,9.32,0,0,0,8.92,2.49l.33,1.78a9.78,9.78,0,0,1-18-4.69A6.46,6.46,0,0,1,26.36,47.15Zm26.35-8.64a11.52,11.52,0,0,1,8.87,4.15H43.84a11.47,11.47,0,0,1,8.87-4.15ZM9.47,8H54.52A4.45,4.45,0,0,1,59,12.43v5.63H5V12.43A4.45,4.45,0,0,1,9.47,8ZM5,67.56V21H59V33.62a14.39,14.39,0,0,0-4.31,2.06,14.68,14.68,0,0,0-7.19.84,19.29,19.29,0,0,0-23.12-6.21A1.48,1.48,0,1,0,25.52,33a16.34,16.34,0,0,1,19.27,4.86,14.29,14.29,0,0,0-2.72,2.3A12.75,12.75,0,1,0,39.8,58.08a13,13,0,0,0,1.11-1l.75,4A16.07,16.07,0,0,1,32,64.3,16.3,16.3,0,0,1,17,41.53a1.48,1.48,0,1,0-2.72-1.18h0a19.27,19.27,0,0,0,27.95,24L43.7,72H9.47A4.45,4.45,0,0,1,5,67.56ZM69.74,72h-23L41.78,45.63H74.67Z"/></g><path id="fb62ffb2-d69a-410f-9bbd-cb36bba590e0" data-name="Trazado 2451" class="e524e756-fa1f-489e-a845-dfa79db4a6f2" d="M19.42,36.91a1.5,1.5,0,1,0-1-.44A1.45,1.45,0,0,0,19.42,36.91Z"/></g></g></svg>
